<svg width="60" height="1500" viewBox="0 0 60 1500" fill="none" xmlns="http://www.w3.org/2000/svg">
<path fill-rule="evenodd" clip-rule="evenodd" d="M27.9167 21.6667H24.1667C23.7065 21.6667 23.3334 21.2936 23.3334 20.8333C23.3334 20.3731 23.7065 20 24.1667 20H27.9167C29.5275 20 30.8334 21.3058 30.8334 22.9167V24.1667C30.8334 24.6269 30.4603 25 30 25C29.5398 25 29.1667 24.6269 29.1667 24.1667V22.9167C29.1667 22.2263 28.607 21.6667 27.9167 21.6667ZM20 30C20 27.9289 21.679 26.25 23.75 26.25H36.25C38.3211 26.25 40 27.9289 40 30V38.2333C39.9999 38.7017 39.8119 39.1504 39.4784 39.4792C39.1438 39.8141 38.6893 40.0016 38.2159 40C36.6008 40 36.3281 39.471 34.8269 36.5594L34.8225 36.5508C34.7332 36.3793 34.6401 36.1987 34.542 36.0086C34.4085 35.7498 34.2659 35.4733 34.1117 35.1783C33.735 34.5504 33.0564 34.1663 32.3242 34.1667H27.675C26.9322 34.1688 26.2457 34.5633 25.87 35.2042L25.2675 36.3658C23.6475 39.5 23.3984 39.9783 21.7742 40H21.75C21.287 40.002 20.842 39.8204 20.5125 39.495C20.1831 39.1714 19.9983 38.7284 20 38.2667V30ZM25.4167 31.25H26.0417C26.3869 31.25 26.6667 30.9702 26.6667 30.625C26.6667 30.2798 26.3869 30 26.0417 30H25.4167C25.1866 30 25 29.8135 25 29.5833V28.9583C25 28.6132 24.7202 28.3333 24.375 28.3333C24.0298 28.3333 23.75 28.6132 23.75 28.9583V29.5833C23.75 29.8135 23.5635 30 23.3334 30H22.7084C22.3632 30 22.0834 30.2798 22.0834 30.625C22.0834 30.9702 22.3632 31.25 22.7084 31.25H23.3334C23.5635 31.25 23.75 31.4365 23.75 31.6667V32.2917C23.75 32.6368 24.0298 32.9167 24.375 32.9167C24.7202 32.9167 25 32.6368 25 32.2917V31.6667C25 31.4365 25.1866 31.25 25.4167 31.25ZM32.5 30.4167C32.5 30.8769 32.8731 31.25 33.3334 31.25C33.7936 31.25 34.1667 30.8769 34.1667 30.4167C34.1667 29.9564 33.7936 29.5833 33.3334 29.5833C32.8731 29.5833 32.5 29.9564 32.5 30.4167ZM34.5834 32.0833C34.5834 32.5436 34.9565 32.9167 35.4167 32.9167C35.8769 32.9167 36.25 32.5436 36.25 32.0833C36.25 31.6231 35.8769 31.25 35.4167 31.25C34.9565 31.25 34.5834 31.6231 34.5834 32.0833ZM34.5834 28.75C34.5834 29.2102 34.9565 29.5833 35.4167 29.5833C35.8769 29.5833 36.25 29.2102 36.25 28.75C36.25 28.2898 35.8769 27.9167 35.4167 27.9167C34.9565 27.9167 34.5834 28.2898 34.5834 28.75ZM36.6667 30.4167C36.6667 30.8769 37.0398 31.25 37.5 31.25C37.9603 31.25 38.3334 30.8769 38.3334 30.4167C38.3334 29.9564 37.9603 29.5833 37.5 29.5833C37.0398 29.5833 36.6667 29.9564 36.6667 30.4167Z" fill="#1D1D1B"/>
<path fill-rule="evenodd" clip-rule="evenodd" d="M39.7557 149.411L30.589 140.244C30.2636 139.919 29.7361 139.919 29.4107 140.244L20.244 149.411C20.0058 149.649 19.9345 150.008 20.0634 150.319C20.1924 150.63 20.4962 150.833 20.8332 150.833H21.8748C21.9899 150.833 22.0832 150.927 22.0832 151.042V159.167C22.0832 159.627 22.4563 160 22.9165 160H27.7082C27.8232 160 27.9165 159.907 27.9165 159.792V155.833C27.9165 154.683 28.8493 153.75 29.9998 153.75C31.1504 153.75 32.0832 154.683 32.0832 155.833V159.792C32.0832 159.907 32.1765 160 32.2915 160H37.0832C37.5434 160 37.9165 159.627 37.9165 159.167V151.042C37.9165 150.927 38.0098 150.833 38.1248 150.833H39.1665C39.5035 150.833 39.8073 150.63 39.9362 150.319C40.0652 150.008 39.9939 149.649 39.7557 149.411Z" fill="#1D1D1B"/>
<path fill-rule="evenodd" clip-rule="evenodd" d="M39.2 262.508C39.1989 262.055 39.0234 261.623 38.7128 261.307C38.4081 260.993 37.9923 260.824 37.564 260.84C34.492 260.935 31.404 261.563 29.8432 262.763C29.702 262.872 29.5092 262.872 29.368 262.763C27.808 261.564 24.712 260.935 21.636 260.84C21.2078 260.825 20.7924 260.993 20.4872 261.307C20.1766 261.623 20.0011 262.055 20 262.508V274.591C19.9998 275.497 20.6944 276.237 21.564 276.258C26.3424 276.4 28.8072 277.775 28.8072 278.329C28.8072 278.789 29.1654 279.163 29.6072 279.163C30.049 279.163 30.4072 278.789 30.4072 278.329C30.4072 277.774 32.8672 276.4 37.6368 276.258C38.5064 276.237 39.201 275.497 39.2008 274.591L39.2 262.508ZM21.9816 274.605C21.7673 274.596 21.5982 274.412 21.5984 274.188L21.5888 262.938C21.5887 262.824 21.6333 262.715 21.7124 262.637C21.7914 262.558 21.898 262.516 22.0072 262.522C26.4952 262.734 28.8072 264.04 28.8072 264.577V275.484C28.8069 275.625 28.7387 275.755 28.6259 275.832C28.513 275.909 28.3707 275.921 28.2472 275.865C26.2452 275.068 24.1247 274.641 21.9816 274.605ZM37.5904 274.188C37.5906 274.411 37.422 274.595 37.208 274.605C35.0734 274.642 32.9616 275.069 30.968 275.864C30.8444 275.92 30.7019 275.908 30.589 275.831C30.4761 275.754 30.4081 275.623 30.408 275.483V264.578C30.408 264.042 32.7152 262.735 37.184 262.524C37.2932 262.519 37.3998 262.561 37.4788 262.639C37.5579 262.718 37.6025 262.827 37.6024 262.941L37.5904 274.188ZM27.4144 265.78C26.067 265.339 24.677 265.054 23.2696 264.93C23.0562 264.908 22.848 265.007 22.7234 265.189C22.5988 265.37 22.5767 265.608 22.6654 265.811C22.7541 266.014 22.9402 266.153 23.1536 266.174C24.4706 266.289 25.7714 266.554 27.0328 266.965C27.3454 267.07 27.6806 266.893 27.785 266.569C27.8894 266.244 27.7243 265.893 27.4144 265.78ZM23.2696 268.408C24.677 268.531 26.0671 268.816 27.4144 269.258C27.7243 269.371 27.8894 269.722 27.785 270.046C27.6806 270.37 27.3454 270.547 27.0328 270.443C25.7715 270.031 24.4706 269.766 23.1536 269.652C22.8238 269.618 22.5824 269.313 22.6144 268.969C22.6464 268.626 22.9398 268.374 23.2696 268.408ZM27.4144 272.735C26.0671 272.293 24.6771 272.008 23.2696 271.884C22.9468 271.864 22.6664 272.113 22.6352 272.448C22.604 272.784 22.8331 273.085 23.1536 273.129C24.4707 273.243 25.7717 273.508 27.0328 273.92C27.3454 274.025 27.6806 273.848 27.785 273.524C27.8894 273.199 27.7243 272.848 27.4144 272.735ZM36.0608 266.174C34.7436 266.289 33.4424 266.554 32.1808 266.965C31.8682 267.07 31.533 266.893 31.4286 266.569C31.3242 266.244 31.4893 265.893 31.7992 265.78C33.1467 265.339 34.5366 265.054 35.944 264.93C36.2738 264.896 36.5673 265.148 36.5996 265.491C36.6319 265.835 36.3906 266.141 36.0608 266.174ZM32.1808 270.443C33.4423 270.031 34.7435 269.766 36.0608 269.652C36.3906 269.618 36.6319 269.312 36.5996 268.969C36.5673 268.625 36.2738 268.374 35.944 268.408C34.5366 268.531 33.1465 268.816 31.7992 269.258C31.4893 269.371 31.3242 269.722 31.4286 270.046C31.533 270.37 31.8682 270.547 32.1808 270.443ZM36.0608 273.126C34.7434 273.239 33.4422 273.505 32.1808 273.917C31.8682 274.021 31.533 273.845 31.4286 273.52C31.3242 273.196 31.4893 272.845 31.7992 272.732C33.1465 272.29 34.5365 272.005 35.944 271.881C36.2672 271.86 36.5484 272.109 36.5798 272.445C36.6113 272.78 36.3818 273.082 36.0608 273.126Z" fill="#1D1D1B"/>
<path fill-rule="evenodd" clip-rule="evenodd" d="M37.5 505.833C38.8807 505.833 40 506.953 40 508.333V516.667C40 518.277 38.6942 519.583 37.0833 519.583H22.9167C21.3058 519.583 20 518.277 20 516.667V502.083C20 501.163 20.7462 500.417 21.6667 500.417H34.1667C35.0871 500.417 35.8333 501.163 35.8333 502.083V505.833H37.5ZM21.6667 516.667C21.6667 517.357 22.2263 517.917 22.9167 517.917L33.855 517.916C33.9839 517.916 34.1054 517.856 34.1843 517.754C34.2632 517.652 34.2905 517.52 34.2583 517.395C34.1972 517.157 34.1664 516.912 34.1667 516.667V502.5C34.1667 502.27 33.9801 502.083 33.75 502.083H22.0833C21.8532 502.083 21.6667 502.27 21.6667 502.5V516.667ZM38.3333 516.667C38.3333 517.357 37.7737 517.917 37.0833 517.917C36.393 517.917 35.8333 517.357 35.8333 516.667V507.917C35.8333 507.687 36.0199 507.5 36.25 507.5H37.5C37.9602 507.5 38.3333 507.873 38.3333 508.333V516.667ZM24.585 503.75C24.0097 503.75 23.5433 504.216 23.5433 504.792V508.75C23.5433 509.325 24.0097 509.792 24.585 509.792H27.2933C27.8686 509.792 28.335 509.325 28.335 508.75V504.792C28.335 504.216 27.8686 503.75 27.2933 503.75H24.585ZM30.6258 505.039H32.2925C32.6377 505.039 32.9175 505.319 32.9175 505.664V506.081C32.9175 506.426 32.6377 506.706 32.2925 506.706H30.6258C30.4603 506.706 30.3014 506.641 30.184 506.524C30.0666 506.407 30.0004 506.249 30 506.083V505.667C29.9996 505.5 30.0653 505.341 30.1827 505.223C30.3001 505.105 30.4596 505.039 30.6258 505.039ZM32.2925 508.372H30.6258C30.4596 508.372 30.3001 508.439 30.1827 508.556C30.0653 508.674 29.9996 508.834 30 509V509.417C30.0014 509.761 30.2813 510.04 30.6258 510.039H32.2925C32.6377 510.039 32.9175 509.759 32.9175 509.414V508.997C32.9175 508.652 32.6377 508.372 32.2925 508.372ZM23.9592 511.706H32.2925C32.6377 511.706 32.9175 511.986 32.9175 512.331V512.747C32.9175 513.093 32.6377 513.372 32.2925 513.372H23.9592C23.6146 513.373 23.3347 513.095 23.3333 512.75V512.333C23.3329 512.167 23.3986 512.007 23.516 511.89C23.6335 511.772 23.7929 511.706 23.9592 511.706ZM30.2083 515.039H23.9583C23.7921 515.039 23.6328 515.105 23.5155 515.223C23.3982 515.341 23.3327 515.5 23.3333 515.667V516.083C23.3343 516.428 23.6139 516.706 23.9583 516.706H30.2083C30.5535 516.706 30.8333 516.426 30.8333 516.081V515.664C30.8333 515.319 30.5535 515.039 30.2083 515.039Z" fill="#1D1D1B"/>
<path fill-rule="evenodd" clip-rule="evenodd" d="M39.5123 757.164L35.6439 753.293C38.0842 749.638 37.3555 744.727 33.9592 741.939C30.5628 739.151 25.6066 739.396 22.5007 742.504C19.3948 745.613 19.1523 750.572 21.94 753.969C24.7278 757.366 29.6365 758.094 33.2886 755.651L37.1571 759.521C37.8122 760.16 38.8573 760.16 39.5123 759.521C40.1626 758.87 40.1626 757.815 39.5123 757.164ZM28.5491 742.51C31.8837 742.51 34.587 745.215 34.587 748.551C34.587 751.888 31.8837 754.592 28.5491 754.592C25.2144 754.592 22.5111 751.888 22.5111 748.551C22.5148 745.216 25.2159 742.514 28.5491 742.51Z" fill="#1D1D1B"/>
<path fill-rule="evenodd" clip-rule="evenodd" d="M20 870C20 864.477 24.4772 860 30 860C35.5204 860.006 39.994 864.48 40 870C40 875.523 35.5228 880 30 880C24.4772 880 20 875.523 20 870ZM22.2917 870C22.2917 874.257 25.7428 877.708 30 877.708C34.2553 877.704 37.7037 874.255 37.7083 870C37.7083 865.743 34.2572 862.292 30 862.292C25.7428 862.292 22.2917 865.743 22.2917 870Z" fill="black"/>
<path fill-rule="evenodd" clip-rule="evenodd" d="M23.542 870C23.542 866.433 26.4335 863.542 30.0003 863.542C33.5655 863.546 36.4545 866.435 36.4587 870C36.4587 873.567 33.5672 876.458 30.0003 876.458C26.4335 876.458 23.542 873.567 23.542 870ZM33.3337 871.25C33.5638 871.25 33.7503 871.063 33.7503 870.833V869.167C33.7503 868.937 33.5638 868.75 33.3337 868.75H31.667C31.4369 868.75 31.2503 868.563 31.2503 868.333V866.667C31.2503 866.437 31.0638 866.25 30.8337 866.25H29.167C28.9369 866.25 28.7503 866.437 28.7503 866.667V868.333C28.7503 868.563 28.5638 868.75 28.3337 868.75H26.667C26.4369 868.75 26.2503 868.937 26.2503 869.167V870.833C26.2503 871.063 26.4369 871.25 26.667 871.25H28.3337C28.5638 871.25 28.7503 871.437 28.7503 871.667V873.333C28.7503 873.563 28.9369 873.75 29.167 873.75H30.8337C31.0638 873.75 31.2503 873.563 31.2503 873.333V871.667C31.2503 871.437 31.4369 871.25 31.667 871.25H33.3337Z" fill="black"/>
<path fill-rule="evenodd" clip-rule="evenodd" d="M37.5 1119H22.5C21.1193 1119 20 1117.85 20 1116.43V1107C20 1105.58 21.1193 1104.43 22.5 1104.43H25.75C25.8541 1104.43 25.9413 1104.35 25.9542 1104.24L26.0742 1103.25C26.2305 1101.97 27.2941 1101 28.555 1101H31.445C32.7049 1101 33.7671 1101.97 33.9233 1103.25L34.0433 1104.24C34.0564 1104.35 34.145 1104.43 34.25 1104.43H37.5C38.8807 1104.43 40 1105.58 40 1107V1116.43C40 1117.85 38.8807 1119 37.5 1119ZM28.555 1102.71C28.1345 1102.71 27.7796 1103.04 27.7275 1103.47L27.64 1104.19C27.6329 1104.25 27.6514 1104.31 27.6909 1104.36C27.7304 1104.4 27.7871 1104.43 27.8467 1104.43H32.1533C32.2129 1104.43 32.2696 1104.4 32.3091 1104.36C32.3486 1104.31 32.3672 1104.25 32.36 1104.19L32.2725 1103.47C32.2204 1103.04 31.8655 1102.71 31.445 1102.71H28.555ZM24.375 1109.14C24.375 1108.79 24.6548 1108.5 25 1108.5H35C35.3452 1108.5 35.625 1108.79 35.625 1109.14V1109.57C35.625 1109.93 35.3452 1110.21 35 1110.21H25C24.6548 1110.21 24.375 1109.93 24.375 1109.57V1109.14ZM25 1113.21C24.6548 1113.21 24.375 1113.5 24.375 1113.86V1114.29C24.375 1114.64 24.6548 1114.93 25 1114.93H35C35.3452 1114.93 35.625 1114.64 35.625 1114.29V1113.86C35.625 1113.5 35.3452 1113.21 35 1113.21H25Z" fill="black"/>
<path fill-rule="evenodd" clip-rule="evenodd" d="M20 630C20 624.477 24.4772 620 30 620C35.5204 620.006 39.994 624.48 40 630C40 635.523 35.5228 640 30 640C24.4772 640 20 635.523 20 630ZM31.0942 623.086C30.9418 623.152 30.8436 623.303 30.8442 623.469L30.84 625.628C30.8397 625.762 30.9032 625.887 31.0108 625.966L33.9275 628.087C34.0568 628.182 34.2288 628.194 34.37 628.118L35.9817 627.254C36.1063 627.187 36.1885 627.062 36.2 626.921L36.4325 624.294C36.4429 624.175 36.4013 624.057 36.3183 623.97C35.583 623.198 34.7133 622.566 33.7517 622.105C33.6436 622.053 33.5185 622.051 33.4083 622.098L31.0942 623.086ZM23.6992 623.949C24.4329 623.183 25.2994 622.557 26.2567 622.1C26.3647 622.048 26.4898 622.046 26.6 622.093L28.9242 623.083C29.0765 623.15 29.1747 623.3 29.1742 623.467V625.629C29.173 625.761 29.1093 625.885 29.0025 625.963L26.1692 628.028C26.0443 628.119 25.8791 628.134 25.74 628.066L24.0492 627.24C23.9179 627.176 23.8297 627.048 23.8167 626.903L23.5833 624.274C23.5732 624.154 23.6154 624.036 23.6992 623.949ZM25.5342 634.81L26.4733 633.762C26.5705 633.652 26.6028 633.499 26.5583 633.359L25.4942 630.071C25.4608 629.969 25.3891 629.883 25.2942 629.833L23.5442 628.893C23.3727 628.801 23.1603 628.84 23.0325 628.987L21.4283 630.833C21.3523 630.923 21.3178 631.041 21.3333 631.158C21.4717 632.202 21.7993 633.213 22.3 634.141C22.3571 634.246 22.4566 634.322 22.5733 634.348L25.13 634.938C25.2779 634.972 25.4327 634.923 25.5342 634.81ZM33.14 636.262L31.8575 638.409C31.7959 638.513 31.6926 638.584 31.5742 638.606C30.5436 638.793 29.4877 638.795 28.4567 638.61C28.3379 638.589 28.2343 638.517 28.1725 638.413L26.885 636.265C26.7911 636.108 26.8104 635.908 26.9325 635.773L27.8708 634.725C27.95 634.637 28.0631 634.586 28.1817 634.587H31.8425C31.9611 634.586 32.0741 634.637 32.1533 634.725L33.0908 635.773C33.2126 635.908 33.2318 636.108 33.1383 636.264L33.14 636.262ZM37.4283 634.346C37.545 634.319 37.6446 634.244 37.7017 634.138L37.7 634.141C38.2014 633.215 38.5301 632.205 38.67 631.162C38.6858 631.043 38.65 630.924 38.5717 630.833L36.97 628.98C36.8423 628.834 36.6304 628.795 36.4592 628.887L34.7092 629.826C34.6142 629.876 34.5426 629.962 34.5092 630.064L33.445 633.352C33.3985 633.493 33.4302 633.648 33.5283 633.759L34.4675 634.807C34.5689 634.92 34.7238 634.969 34.8717 634.935L37.4283 634.346Z" fill="black"/>
<path fill-rule="evenodd" clip-rule="evenodd" d="M29.9514 386.578C30.0799 386.504 30.159 386.365 30.1585 386.216L30.1519 385.417C30.1519 385.187 29.9672 385 29.7392 385H27.8598C27.5089 385 27.1964 385.224 27.0806 385.558L22.8421 397.779C22.7979 397.907 22.8177 398.048 22.8951 398.158C22.9725 398.268 23.0979 398.333 23.2317 398.333H33.7904C34.2462 398.333 34.6158 398.706 34.6158 399.167C34.6158 399.627 34.2462 400 33.7904 400H22.6514C22.1166 400 21.6148 399.739 21.305 399.299C20.9953 398.858 20.916 398.294 21.0922 397.784L26.4871 382.224C26.638 381.79 27.1092 381.561 27.5395 381.713C27.9698 381.866 28.1964 382.341 28.0455 382.776C27.9999 382.904 28.0192 383.047 28.0974 383.158C28.1755 383.269 28.3026 383.335 28.4376 383.333H29.7458C29.9738 383.333 30.1585 383.147 30.1585 382.917V381.25C30.1585 380.56 30.7129 380 31.3967 380H33.8729C34.5567 380 35.111 380.56 35.111 381.25V382.917C35.111 383.147 35.2958 383.333 35.5237 383.333H36.3491C36.805 383.333 37.1746 383.706 37.1746 384.167C37.1746 384.627 36.805 385 36.3491 385H35.5237C35.2958 385 35.111 385.187 35.111 385.417V386.216C35.1108 386.366 35.1902 386.504 35.319 386.578C36.9807 387.535 38.0048 389.319 38 391.25C38 394.242 35.5979 396.667 32.6348 396.667C29.6717 396.667 27.2696 394.242 27.2696 391.25C27.2651 389.319 28.2895 387.534 29.9514 386.578ZM29.9522 391.667C29.9522 392.012 30.2293 392.292 30.5712 392.292C30.9131 392.292 31.1903 392.012 31.1903 391.667C31.1903 391.321 30.9131 391.042 30.5712 391.042C30.2293 391.042 29.9522 391.321 29.9522 391.667ZM32.8411 394.375C32.4992 394.375 32.2221 394.095 32.2221 393.75C32.2221 393.405 32.4992 393.125 32.8411 393.125C33.183 393.125 33.4602 393.405 33.4602 393.75C33.4602 393.916 33.3944 394.076 33.2774 394.193C33.1604 394.311 33.0019 394.376 32.837 394.375H32.8411ZM33.6665 391.828C33.6665 392.403 34.1285 392.869 34.6983 392.869C35.2678 392.868 35.7292 392.402 35.7301 391.828C35.7301 391.252 35.2681 390.786 34.6983 390.786C34.1285 390.786 33.6665 391.252 33.6665 391.828ZM31.8094 382.083C31.8094 381.853 31.9941 381.667 32.2221 381.667H33.0475C33.2754 381.667 33.4602 381.853 33.4602 382.083V382.917C33.4602 383.147 33.2754 383.333 33.0475 383.333H32.2221C31.9941 383.333 31.8094 383.147 31.8094 382.917V382.083ZM33.4602 385.417C33.4602 385.187 33.2754 385 33.0475 385H32.2221C31.9941 385 31.8094 385.187 31.8094 385.417V387C31.8088 387.344 31.5994 387.652 31.2819 387.776C30.3803 388.128 29.6501 388.821 29.2465 389.708C29.2177 389.772 29.2232 389.847 29.2612 389.907C29.2992 389.966 29.3645 390.002 29.4347 390.003H35.8316C35.9018 390.002 35.9671 389.966 36.005 389.907C36.0429 389.847 36.0482 389.772 36.019 389.708C35.6158 388.821 34.8858 388.128 33.9843 387.777C33.6679 387.651 33.4599 387.343 33.4602 387V385.417Z" fill="black"/>
<path fill-rule="evenodd" clip-rule="evenodd" d="M38.125 981.458H21.875C20.84 981.46 20.0014 982.298 20 983.333V992.5C20.0014 993.535 20.84 994.374 21.875 994.375H28.5417C28.7718 994.375 28.9583 994.562 28.9583 994.792V996.042C28.9583 996.272 28.7718 996.458 28.5417 996.458H26.0417C25.4664 996.458 25 996.925 25 997.5C25 998.075 25.4664 998.542 26.0417 998.542H33.9583C34.5336 998.542 35 998.075 35 997.5C35 996.925 34.5336 996.458 33.9583 996.458H31.4583C31.2282 996.458 31.0417 996.272 31.0417 996.042V994.792C31.0417 994.562 31.2282 994.375 31.4583 994.375H38.125C39.16 994.374 39.9986 993.535 40 992.5V983.333C39.9986 982.298 39.16 981.46 38.125 981.458ZM37.9167 991.875C37.9167 992.105 37.7301 992.292 37.5 992.292H22.5C22.2699 992.292 22.0833 992.105 22.0833 991.875V983.958C22.0833 983.728 22.2699 983.542 22.5 983.542H37.5C37.7301 983.542 37.9167 983.728 37.9167 983.958V991.875Z" fill="#1D1D1B"/>
<path fill-rule="evenodd" clip-rule="evenodd" d="M37.917 1222.5H35.6253C35.5103 1222.5 35.417 1222.41 35.417 1222.29V1220.83C35.417 1220.37 35.0439 1220 34.5837 1220C34.1234 1220 33.7503 1220.37 33.7503 1220.83V1224.79C33.7503 1225.14 33.4705 1225.42 33.1253 1225.42C32.7801 1225.42 32.5003 1225.14 32.5003 1224.79V1222.92C32.5003 1222.69 32.3138 1222.5 32.0837 1222.5H26.8753C26.7606 1222.5 26.6675 1222.41 26.667 1222.29V1220.83C26.667 1220.37 26.2939 1220 25.8337 1220C25.3734 1220 25.0003 1220.37 25.0003 1220.83V1224.79C25.0003 1225.14 24.7205 1225.42 24.3753 1225.42C24.0301 1225.42 23.7503 1225.14 23.7503 1224.79V1222.92C23.7503 1222.69 23.5638 1222.5 23.3337 1222.5H22.0837C21.1632 1222.5 20.417 1223.25 20.417 1224.17V1238.33C20.417 1239.25 21.1632 1240 22.0837 1240H37.917C38.8375 1240 39.5837 1239.25 39.5837 1238.33V1224.17C39.5837 1223.25 38.8375 1222.5 37.917 1222.5ZM37.5003 1238.33H22.5003C22.2702 1238.33 22.0837 1238.15 22.0837 1237.92V1227.92C22.0837 1227.69 22.2702 1227.5 22.5003 1227.5H37.5003C37.7304 1227.5 37.917 1227.69 37.917 1227.92V1237.92C37.917 1238.15 37.7304 1238.33 37.5003 1238.33Z" fill="#1D1D1B"/>
<path fill-rule="evenodd" clip-rule="evenodd" d="M28.7457 1349.69L33.8536 1350.29C34.8142 1350.4 35.7721 1350.07 36.4253 1349.4L37.7716 1347.99C37.8106 1347.95 37.8656 1347.93 37.9238 1347.92C37.9823 1347.92 38.039 1347.94 38.0803 1347.98L39.2599 1349.09C39.3815 1349.2 39.5641 1349.24 39.7227 1349.18C39.8813 1349.12 39.9849 1348.97 39.9853 1348.81V1345.38C40.0049 1345.26 40.0049 1345.14 39.9853 1345.02V1344.41C39.9853 1344.19 39.7949 1344.01 39.5601 1344.01H38.9214C38.7909 1344 38.6581 1344 38.5276 1344.01H34.8826C34.7109 1344.01 34.5563 1344.11 34.4906 1344.26C34.425 1344.41 34.4612 1344.58 34.5824 1344.7L35.972 1346C36.0518 1346.08 36.0555 1346.2 35.9805 1346.28L34.5339 1347.79C34.4411 1347.89 34.3052 1347.93 34.1691 1347.92L29.0621 1347.32C28.1499 1347.21 27.2349 1347.5 26.5881 1348.12L20.3739 1353.95C19.8755 1354.42 19.8753 1355.18 20.3735 1355.65C20.8716 1356.12 21.6793 1356.12 22.1777 1355.65L28.3928 1349.81C28.4854 1349.72 28.6156 1349.68 28.7457 1349.69Z" fill="#1D1D1B"/>
<path fill-rule="evenodd" clip-rule="evenodd" d="M28.5417 1461.67C28.5417 1462.13 28.1686 1462.5 27.7083 1462.5C27.2481 1462.5 26.875 1462.13 26.875 1461.67V1460.83C26.875 1460.37 27.2481 1460 27.7083 1460C28.1686 1460 28.5417 1460.37 28.5417 1460.83V1461.67ZM23.6571 1464.25C23.3657 1464.33 23.0559 1464.24 22.8467 1464.03L22.2575 1463.44C21.9417 1463.11 21.9462 1462.59 22.2677 1462.27C22.5891 1461.95 23.1089 1461.94 23.4358 1462.26L24.025 1462.85C24.2416 1463.06 24.3285 1463.37 24.2522 1463.66C24.176 1463.95 23.9484 1464.18 23.6571 1464.25ZM22.5 1467.71C22.5 1467.25 22.1269 1466.88 21.6667 1466.88H20.8333C20.3731 1466.88 20 1467.25 20 1467.71C20 1468.17 20.3731 1468.54 20.8333 1468.54H21.6667C22.1269 1468.54 22.5 1468.17 22.5 1467.71ZM32.57 1464.03C32.4138 1464.18 32.2018 1464.27 31.9808 1464.27C31.6438 1464.27 31.3401 1464.07 31.2111 1463.75C31.0821 1463.44 31.1534 1463.08 31.3917 1462.85L31.9808 1462.26C32.3078 1461.94 32.8276 1461.95 33.149 1462.27C33.4705 1462.59 33.475 1463.11 33.1592 1463.44L32.57 1464.03ZM24.93 1469.99C24.9901 1469.97 25.0358 1469.92 25.0536 1469.86C25.0714 1469.8 25.0593 1469.73 25.0208 1469.68C23.9785 1468.22 24.2813 1466.19 25.7057 1465.1C27.1302 1464.01 29.1644 1464.24 30.3067 1465.62C30.3596 1465.69 30.4459 1465.71 30.5267 1465.69C30.9536 1465.57 31.3911 1465.49 31.8333 1465.45C31.9047 1465.44 31.9677 1465.4 32 1465.33C32.0324 1465.27 32.0295 1465.19 31.9925 1465.13C31.065 1463.56 29.3508 1462.61 27.5228 1462.67C25.6948 1462.73 24.0447 1463.78 23.2202 1465.41C22.3956 1467.05 22.5282 1469 23.5658 1470.51C23.63 1470.6 23.7588 1470.63 23.8542 1470.56C24.1919 1470.34 24.5525 1470.15 24.93 1469.99ZM38.4117 1472.56C38.361 1472.52 38.3304 1472.46 38.3283 1472.4C38.2782 1469.55 36.1767 1467.16 33.3582 1466.73C30.5397 1466.31 27.8294 1467.99 26.9483 1470.7C26.9226 1470.78 26.8499 1470.84 26.765 1470.84C24.3002 1471.01 22.4135 1473.11 22.4994 1475.58C22.5852 1478.05 24.6127 1480 27.0833 1480H35.8333C37.6079 1480 39.1872 1478.87 39.7684 1477.2C40.3495 1475.52 39.805 1473.66 38.4117 1472.56ZM38.3333 1475.83C38.3333 1477.21 37.214 1478.33 35.8333 1478.33H27.0833C25.9963 1478.33 24.9991 1477.73 24.4962 1476.77C23.9933 1475.8 24.0681 1474.64 24.6902 1473.75C25.3124 1472.86 26.3786 1472.38 27.4567 1472.52C27.904 1472.58 28.3176 1472.28 28.3867 1471.83C28.7332 1469.68 30.6702 1468.17 32.8361 1468.34C35.002 1468.52 36.6695 1470.33 36.6667 1472.5C36.6667 1472.62 36.6608 1472.74 36.65 1472.86C36.6204 1473.19 36.7833 1473.5 37.0667 1473.66C37.8483 1474.1 38.3317 1474.93 38.3333 1475.83Z" fill="#1D1D1B"/>
<rect x="0.5" y="0.5" width="59" height="1499" rx="4.5" stroke="#7B61FF" stroke-dasharray="10 5"/>
</svg>
